# xmcd
#
# Track frame offsets:
#   150
#   10907
#   24845
#   42205
#   61895
#   78955
#   96610
#   116175
#   131572
#   149960
#   163057
#   181202
#
# Disc length: 2625 seconds
#
# Revision: 1
# Processed by: cddbd v1.5.1PL0 Copyright (c) Steve Scherf et al.
# Submitted via: Media_Universe 3.0
#
DISCID=a50a3f0c
DTITLE=Celina González and Reutilo - Desde la Habana te Traigo
DYEAR=1997
DGENRE=lATIN
TTITLE0=Maria de la Luz
TTITLE1=A la Reina del Mar
TTITLE2=Desde la Habana te Traigo
TTITLE3=A Francisco
TTITLE4=El Carretero
TTITLE5=Antonia Gervasia
TTITLE6=Cita en el Platanal
TTITLE7=Yo soy tu Amigo
TTITLE8=El Rey del Mundo
TTITLE9=Pedacito de mi Vida
TTITLE10=Un Desengaño en la Vida
TTITLE11=Mi Tierra es Asi
EXTD=
EXTT0=
EXTT1=
EXTT2=
EXTT3=
EXTT4=
EXTT5=
EXTT6=
EXTT7=
EXTT8=
EXTT9=
EXTT10=
EXTT11=
PLAYORDER=
